# xmcd CD database file
#
# Track frame offsets:
#	150
#	20572
#	44178
#	66888
#	86514
#	106473
#	127596
#	145423
#	167734
#	189358
#	207865
#	227964
#
# Disc length: 3332 seconds
#
# Revision: 3
# Processed by: cddbd v1.5.1PL2 Copyright (c) Steve Scherf et al.
# Submitted via: CDex 1.50
#
DISCID=a80d020c
DTITLE=Vangelis - Chariots of Fire 3
DYEAR=2000
DGENRE=New Age
TTITLE0=Vangelis 31
TTITLE1=Vangelis 32
TTITLE2=Vangelis 33
TTITLE3=Vangelis 34
TTITLE4=Vangelis 35
TTITLE5=Vangelis 36
TTITLE6=Vangelis 37
TTITLE7=Vangelis 38
TTITLE8=Vangelis 39
TTITLE9=Vangelis 310
TTITLE10=Vangelis 311
TTITLE11=Vangelis 312
EXTD=YEAR: 2000
EXTT0=
EXTT1=
EXTT2=
EXTT3=
EXTT4=
EXTT5=
EXTT6=
EXTT7=
EXTT8=
EXTT9=
EXTT10=
EXTT11=
PLAYORDER=
